<svg width="31" height="31" viewBox="0 0 31 31" fill="none" xmlns="http://www.w3.org/2000/svg">
<path d="M27.2419 21.4244H9.85057L10.7238 19.6459L25.2327 19.6196C25.7233 19.6196 26.1438 19.2691 26.2315 18.7843L28.2407 7.53762C28.2933 7.24265 28.2144 6.93892 28.0217 6.70821C27.9264 6.59466 27.8076 6.50319 27.6735 6.44016C27.5393 6.37712 27.3931 6.34402 27.2449 6.34315L8.78752 6.28182L8.62982 5.54002C8.53052 5.0669 8.10413 4.72229 7.61934 4.72229H3.10722C2.8338 4.72229 2.57158 4.8309 2.37824 5.02424C2.18491 5.21758 2.07629 5.4798 2.07629 5.75321C2.07629 6.02663 2.18491 6.28885 2.37824 6.48219C2.57158 6.67552 2.8338 6.78414 3.10722 6.78414H6.78408L7.47331 10.0609L9.1701 18.2762L6.98559 21.8421C6.87215 21.9952 6.80382 22.177 6.78834 22.3669C6.77285 22.5568 6.81083 22.7473 6.89798 22.9168C7.07321 23.2643 7.42658 23.4834 7.81793 23.4834H9.65198C9.26098 24.0027 9.04979 24.6352 9.05036 25.2853C9.05036 26.9383 10.3938 28.2817 12.0468 28.2817C13.6997 28.2817 15.0432 26.9383 15.0432 25.2853C15.0432 24.634 14.827 24.0003 14.4415 23.4834H19.1464C18.7554 24.0027 18.5442 24.6352 18.5448 25.2853C18.5448 26.9383 19.8882 28.2817 21.5412 28.2817C23.1942 28.2817 24.5376 26.9383 24.5376 25.2853C24.5376 24.634 24.3215 24.0003 23.936 23.4834H27.2449C27.8114 23.4834 28.2758 23.0219 28.2758 22.4524C28.2741 22.1793 28.1644 21.9179 27.9707 21.7253C27.7771 21.5327 27.5151 21.4246 27.2419 21.4244V21.4244ZM9.21683 8.31446L26.0329 8.36995L24.3857 17.5928L11.1765 17.6161L9.21683 8.31446ZM12.0468 26.2081C11.5386 26.2081 11.1239 25.7934 11.1239 25.2853C11.1239 24.7771 11.5386 24.3624 12.0468 24.3624C12.5549 24.3624 12.9696 24.7771 12.9696 25.2853C12.9696 25.53 12.8724 25.7648 12.6993 25.9378C12.5263 26.1109 12.2915 26.2081 12.0468 26.2081V26.2081ZM21.5412 26.2081C21.033 26.2081 20.6183 25.7934 20.6183 25.2853C20.6183 24.7771 21.033 24.3624 21.5412 24.3624C22.0493 24.3624 22.4641 24.7771 22.4641 25.2853C22.4641 25.53 22.3668 25.7648 22.1938 25.9378C22.0207 26.1109 21.7859 26.2081 21.5412 26.2081V26.2081Z" fill="black"/>
</svg>
