<svg width="31" height="31" viewBox="0 0 31 31" fill="none" xmlns="http://www.w3.org/2000/svg">
<path d="M25.3061 15.8786V9.64823H27.7983V17.1246H25.3061M25.3061 22.1089H27.7983V19.6167H25.3061M12.8455 17.1246C16.1725 17.1246 22.814 18.7943 22.814 22.1089V25.8471H2.87695V22.1089C2.87695 18.7943 9.51848 17.1246 12.8455 17.1246ZM12.8455 5.91003C14.1674 5.91003 15.4351 6.43516 16.3699 7.36989C17.3046 8.30462 17.8297 9.57239 17.8297 10.8943C17.8297 12.2162 17.3046 13.484 16.3699 14.4187C15.4351 15.3534 14.1674 15.8786 12.8455 15.8786C11.5236 15.8786 10.2558 15.3534 9.32107 14.4187C8.38634 13.484 7.86121 12.2162 7.86121 10.8943C7.86121 9.57239 8.38634 8.30462 9.32107 7.36989C10.2558 6.43516 11.5236 5.91003 12.8455 5.91003M12.8455 19.4921C9.14466 19.4921 5.24448 21.3114 5.24448 22.1089V23.4795H20.4465V22.1089C20.4465 21.3114 16.5463 19.4921 12.8455 19.4921M12.8455 8.27756C12.1515 8.27756 11.4859 8.55325 10.9952 9.04398C10.5044 9.53471 10.2287 10.2003 10.2287 10.8943C10.2287 11.5883 10.5044 12.2539 10.9952 12.7446C11.4859 13.2353 12.1515 13.511 12.8455 13.511C13.5395 13.511 14.2051 13.2353 14.6958 12.7446C15.1865 12.2539 15.4622 11.5883 15.4622 10.8943C15.4622 10.2003 15.1865 9.53471 14.6958 9.04398C14.2051 8.55325 13.5395 8.27756 12.8455 8.27756V8.27756Z" fill="black"/>
</svg>
